<svg xmlns="http://www.w3.org/2000/svg" fill="none" viewBox="0 0 32 32"><g filter="url(#svg-ab16bf2f-3517-4ba0-b45c-1775ff04587a-a)"><path fill="url(#svg-1d5cda6a-ca9d-4e20-af36-acf6e0424519-b)" d="M12.268 5.158a3.289 3.289 0 1 1 6.577 0v3.785q.001.483-.073.966-.029.176-.047.352c-.036.37.008.854.26 1.18l-.602.58a9.34 9.34 0 0 1 5.081 8.326 9.4 9.4 0 0 1-.432 2.825l-.997 6.507h-8.101v-.003c-5.003-.108-9.017-3.37-9.017-9.33 0-3.502 1.677-6.322 4.214-7.912l-.006-.005c.173-.12.377-.243.595-.374h.002c.72-.432 1.6-.96 2.063-1.822.403-.747.48-1.96.48-2.523h.003z"/></g><path fill="url(#svg-13864e9d-0ddb-4708-9871-47f1c814c2b0-c)" d="M12.268 5.158a3.289 3.289 0 1 1 6.577 0v3.785q.001.483-.073.966-.029.176-.047.352c-.036.37.008.854.26 1.18l-.602.58a9.34 9.34 0 0 1 5.081 8.326 9.4 9.4 0 0 1-.432 2.825l-.997 6.507h-8.101v-.003c-5.003-.108-9.017-3.37-9.017-9.33 0-3.502 1.677-6.322 4.214-7.912l-.006-.005c.173-.12.377-.243.595-.374h.002c.72-.432 1.6-.96 2.063-1.822.403-.747.48-1.96.48-2.523h.003z"/><path fill="url(#svg-19f81c58-5f92-4ece-8410-eafc41410251-d)" d="M12.268 5.158a3.289 3.289 0 1 1 6.577 0v3.785q.001.483-.073.966-.029.176-.047.352c-.036.37.008.854.26 1.18l-.602.58a9.34 9.34 0 0 1 5.081 8.326 9.4 9.4 0 0 1-.432 2.825l-.997 6.507h-8.101v-.003c-5.003-.108-9.017-3.37-9.017-9.33 0-3.502 1.677-6.322 4.214-7.912l-.006-.005c.173-.12.377-.243.595-.374h.002c.72-.432 1.6-.96 2.063-1.822.403-.747.48-1.96.48-2.523h.003z"/><path fill="url(#svg-2ef5c68e-60a9-4dc0-9968-49c7ec1500e6-e)" d="M12.268 5.158a3.289 3.289 0 1 1 6.577 0v3.785q.001.483-.073.966-.029.176-.047.352c-.036.37.008.854.26 1.18l-.602.58a9.34 9.34 0 0 1 5.081 8.326 9.4 9.4 0 0 1-.432 2.825l-.997 6.507h-8.101v-.003c-5.003-.108-9.017-3.37-9.017-9.33 0-3.502 1.677-6.322 4.214-7.912l-.006-.005c.173-.12.377-.243.595-.374h.002c.72-.432 1.6-.96 2.063-1.822.403-.747.48-1.96.48-2.523h.003z"/><path fill="url(#svg-5344aacc-be0b-4bc8-8a0f-e5ec89665040-f)" d="M12.268 5.158a3.289 3.289 0 1 1 6.577 0v3.785q.001.483-.073.966-.029.176-.047.352c-.036.37.008.854.26 1.18l-.602.58a9.34 9.34 0 0 1 5.081 8.326 9.4 9.4 0 0 1-.432 2.825l-.997 6.507h-8.101v-.003c-5.003-.108-9.017-3.37-9.017-9.33 0-3.502 1.677-6.322 4.214-7.912l-.006-.005c.173-.12.377-.243.595-.374h.002c.72-.432 1.6-.96 2.063-1.822.403-.747.48-1.96.48-2.523h.003z"/><g filter="url(#svg-444501c0-225c-4385-adab-ba3bda96c733-g)"><path fill="url(#svg-1ec2433d-a3eb-4f79-9c8b-6d78791d63d0-h)" d="M23.679 14.709a2.55 2.55 0 0 0-2.552-2.552h-2.826a2.552 2.552 0 0 0-1.638 4.509 2.557 2.557 0 0 0-.116 3.992 2.55 2.55 0 0 0-.901 1.947v.125c0 .7.28 1.333.736 1.794a2.483 2.483 0 0 0 1.746 4.248h2.804a2.483 2.483 0 0 0 2.15-3.728 2.55 2.55 0 0 0 1.472-2.314v-.125c0-.79-.358-1.496-.922-1.964a2.561 2.561 0 0 0-.587-4.249c.395-.45.634-1.038.634-1.683"/></g><g filter="url(#svg-1a1651fb-f035-49a3-8fe4-ac06013599ee-i)"><rect width="5.82" height="9.043" x="25.957" y="10.73" fill="url(#svg-d6b89071-6de6-4bd7-aaef-2c993878be58-j)" rx="2.91" transform="rotate(90 25.957 10.73)"/><rect width="5.82" height="9.043" x="25.957" y="10.73" fill="url(#svg-d961878b-2c4f-4e3b-aa82-d2f4770a5c4a-k)" rx="2.91" transform="rotate(90 25.957 10.73)"/></g><g filter="url(#svg-c5929e0c-7d63-4cff-88ed-d76d156aa053-l)"><rect width="5.664" height="8.861" x="25.657" y="24.015" fill="url(#svg-cb77bd6a-6508-4167-9d01-53b084c47234-m)" rx="2.832" transform="rotate(90 25.657 24.015)"/><rect width="5.664" height="8.861" x="25.657" y="24.015" fill="url(#svg-c2fa70ee-cd57-4592-b5bf-80c18ce090cc-n)" rx="2.832" transform="rotate(90 25.657 24.015)"/><rect width="5.664" height="8.861" x="25.657" y="24.015" fill="url(#svg-879acb36-9ee3-4094-b8ed-0b02ea186a1d-o)" rx="2.832" transform="rotate(90 25.657 24.015)"/></g><rect width="5.664" height="8.861" x="25.657" y="24.015" fill="url(#svg-e21b6551-0b49-4055-9714-6e29fa4d9d82-p)" rx="2.832" transform="rotate(90 25.657 24.015)"/><rect width="5.664" height="8.861" x="25.657" y="24.015" fill="url(#svg-08522a01-aba2-45d6-9996-8be12a112b6b-q)" rx="2.832" transform="rotate(90 25.657 24.015)"/><g filter="url(#svg-876af660-3787-4025-8224-87cb4933a662-r)"><rect width="5.37" height="1.476" x="19.622" y="25.699" fill="url(#svg-3eed7794-fd49-48e9-b240-c412852e05c8-s)" rx=".738"/></g><rect width="5.964" height="10.159" x="26.955" y="19.735" fill="#c4c4c4" fill-opacity=".66" rx="2.982" transform="rotate(90 26.955 19.735)"/><g filter="url(#svg-d3b0c416-94f2-4c1b-92bb-e48c0a87bc0b-t)"><rect width="5.964" height="10.159" x="26.955" y="19.735" fill="url(#svg-0ce186eb-aea7-4a53-8b5b-a7d62f90b743-u)" rx="2.91" transform="rotate(90 26.955 19.735)"/><rect width="5.964" height="10.159" x="26.955" y="19.735" fill="url(#svg-4974f9ff-e6fb-428c-97b2-fa4207e087bf-v)" rx="2.91" transform="rotate(90 26.955 19.735)"/><rect width="5.964" height="10.159" x="26.955" y="19.735" fill="url(#svg-44da7bc4-c69b-40ca-8a90-da61b70ff3ba-w)" rx="2.91" transform="rotate(90 26.955 19.735)"/></g><g filter="url(#svg-fd37288b-7294-4874-8ca8-25d34d478dab-x)"><rect width="6.725" height="1.476" x="19.232" y="21.829" fill="url(#svg-01d95e9d-7e59-4216-9d1f-59cef9928662-y)" rx=".738"/></g><g filter="url(#svg-b7721d77-6095-43af-84c0-bb38f3cfc94c-z)"><rect width="5.833" height="10.114" x="26.909" y="15.285" fill="url(#svg-d5bee02e-c9c1-4a68-b9dc-b541f2c12851-A)" rx="2.91" transform="rotate(90 26.91 15.285)"/><rect width="5.833" height="10.114" x="26.909" y="15.285" fill="url(#svg-ec46326a-3ef8-43ad-928e-f3f453895f22-B)" rx="2.91" transform="rotate(90 26.91 15.285)"/></g><path fill="url(#svg-909a2cfe-c6eb-4cfe-9944-f70883e2de64-C)" d="M15.556 1.87a3.29 3.29 0 0 0-3.288 3.288v2.553l-.002-.001c0 .562-.078 1.776-.48 2.523-.465.863-1.344 1.39-2.064 1.821-.22.132-.424.254-.597.374.995.797 3.032 2.39 3.082 2.352a363 363 0 0 1 3.484-1.86l-.048-.69a3.29 3.29 0 0 0 3.202-3.287V5.158a3.29 3.29 0 0 0-3.289-3.288"/><path fill="url(#svg-67189877-2e1a-4241-a05d-778d6cceecdf-D)" d="M15.556 1.87a3.29 3.29 0 0 0-3.288 3.288v2.553l-.002-.001c0 .562-.078 1.776-.48 2.523-.465.863-1.344 1.39-2.064 1.821-.22.132-.424.254-.597.374.995.797 3.032 2.39 3.082 2.352a363 363 0 0 1 3.484-1.86l-.048-.69a3.29 3.29 0 0 0 3.202-3.287V5.158a3.29 3.29 0 0 0-3.289-3.288"/><path fill="#ffbf71" d="M13.476 2.611a3.28 3.28 0 0 0-1.208 2.547v.192h1.486a6.4 6.4 0 0 0-.086-1.148l-.017-.091c-.082-.448-.176-.96-.175-1.5"/><path fill="url(#svg-d2423c96-e061-4621-ac35-0a4c32fd723c-E)" d="M13.476 2.611a3.28 3.28 0 0 0-1.208 2.547v.192h1.486a6.4 6.4 0 0 0-.086-1.148l-.017-.091c-.082-.448-.176-.96-.175-1.5"/><g filter="url(#svg-8eca434a-9414-4d57-995c-e55ecfb6f9c3-F)"><rect width="6.136" height="2.516" x="18.856" y="11.524" fill="url(#svg-07b10f14-99a4-4d6f-9ed7-060cc8ef5b08-G)" rx="1.258"/></g><g filter="url(#svg-c856b1b1-7f44-4140-b428-1fa8a7a02499-H)"><rect width="7.172" height="2.516" x="18.785" y="16" fill="url(#svg-464f222b-53f4-4d2d-8f09-b883d697145e-I)" rx="1.258"/></g><g filter="url(#svg-11f7ef28-6322-4e9d-90c9-515d6b5fdaa2-J)"><rect width="2.865" height="7.997" x="15.15" y="3.112" fill="url(#svg-135c3f85-fccf-4947-8d55-331fd6b6fe80-K)" rx="1.433"/></g><defs><radialGradient id="svg-13864e9d-0ddb-4708-9871-47f1c814c2b0-c" cx="0" cy="0" r="1" gradientTransform="rotate(141.116 9.365 6.03)scale(5.01564 14.8034)" gradientUnits="userSpaceOnUse"><stop stop-color="#ffe34c"/><stop offset="1" stop-color="#ffe34c" stop-opacity="0"/></radialGradient><radialGradient id="svg-19f81c58-5f92-4ece-8410-eafc41410251-d" cx="0" cy="0" r="1" gradientTransform="rotate(125.191 1.565 10.819)scale(7.43021 5.38256)" gradientUnits="userSpaceOnUse"><stop stop-color="#ffca2e"/><stop offset="1" stop-color="#ffca2e" stop-opacity="0"/></radialGradient><radialGradient id="svg-2ef5c68e-60a9-4dc0-9968-49c7ec1500e6-e" cx="0" cy="0" r="1" gradientTransform="rotate(146.743 6.977 11.958)scale(16.1907 28.3343)" gradientUnits="userSpaceOnUse"><stop offset=".681" stop-color="#e18e3f" stop-opacity="0"/><stop offset="1" stop-color="#e18e3f"/></radialGradient><radialGradient id="svg-d961878b-2c4f-4e3b-aa82-d2f4770a5c4a-k" cx="0" cy="0" r="1" gradientTransform="rotate(127.367 11.197 16.928)scale(2.3211 1.55368)" gradientUnits="userSpaceOnUse"><stop stop-color="#d98320"/><stop offset="1" stop-color="#d98320" stop-opacity="0"/></radialGradient><radialGradient id="svg-c2fa70ee-cd57-4592-b5bf-80c18ce090cc-n" cx="0" cy="0" r="1" gradientTransform="matrix(0 -7.31347 2.78222 0 31.32 31.081)" gradientUnits="userSpaceOnUse"><stop stop-color="#f29545"/><stop offset="1" stop-color="#f29545" stop-opacity="0"/></radialGradient><radialGradient id="svg-879acb36-9ee3-4094-b8ed-0b02ea186a1d-o" cx="0" cy="0" r="1" gradientTransform="matrix(0 -7.4169 1.99096 0 26.65 31.432)" gradientUnits="userSpaceOnUse"><stop stop-color="#da810b"/><stop offset="1" stop-color="#ffb610" stop-opacity="0"/></radialGradient><radialGradient id="svg-08522a01-aba2-45d6-9996-8be12a112b6b-q" cx="0" cy="0" r="1" gradientTransform="matrix(0 -5.60324 8.4227 0 28.488 34.049)" gradientUnits="userSpaceOnUse"><stop stop-color="#e38811"/><stop offset="1" stop-color="#e38811" stop-opacity="0"/></radialGradient><radialGradient id="svg-4974f9ff-e6fb-428c-97b2-fa4207e087bf-v" cx="0" cy="0" r="1" gradientTransform="matrix(0 -8.38517 2.92967 0 32.919 27.836)" gradientUnits="userSpaceOnUse"><stop stop-color="#f29545"/><stop offset="1" stop-color="#f29545" stop-opacity="0"/></radialGradient><radialGradient id="svg-44da7bc4-c69b-40ca-8a90-da61b70ff3ba-w" cx="0" cy="0" r="1" gradientTransform="matrix(0 -8.50376 2.09648 0 28.002 28.239)" gradientUnits="userSpaceOnUse"><stop stop-color="#da810b"/><stop offset="1" stop-color="#ffb610" stop-opacity="0"/></radialGradient><radialGradient id="svg-ec46326a-3ef8-43ad-928e-f3f453895f22-B" cx="0" cy="0" r="1" gradientTransform="matrix(0 -5.50067 2.44847 0 32.037 23.307)" gradientUnits="userSpaceOnUse"><stop stop-color="#f29545"/><stop offset="1" stop-color="#f29545" stop-opacity="0"/></radialGradient><radialGradient id="svg-909a2cfe-c6eb-4cfe-9944-f70883e2de64-C" cx="0" cy="0" r="1" gradientTransform="matrix(0 6.36013 -2.36143 0 12.537 4.844)" gradientUnits="userSpaceOnUse"><stop stop-color="#f3a52a"/><stop offset="1" stop-color="#f3a52a" stop-opacity="0"/></radialGradient><radialGradient id="svg-67189877-2e1a-4241-a05d-778d6cceecdf-D" cx="0" cy="0" r="1" gradientTransform="rotate(42.998 -6.125 18.072)scale(3.18567 4.82045)" gradientUnits="userSpaceOnUse"><stop stop-color="#cda25e"/><stop offset="1" stop-color="#cda25e" stop-opacity="0"/></radialGradient><radialGradient id="svg-d2423c96-e061-4621-ac35-0a4c32fd723c-E" cx="0" cy="0" r="1" gradientTransform="rotate(191.634 7.22 1.513)scale(1.63946 3.57849)" gradientUnits="userSpaceOnUse"><stop offset=".55" stop-color="#ccb28b" stop-opacity="0"/><stop offset="1" stop-color="#ccb28b"/></radialGradient><linearGradient id="svg-1d5cda6a-ca9d-4e20-af36-acf6e0424519-b" x1="19.254" x2="9.191" y1="6.639" y2="27.827" gradientUnits="userSpaceOnUse"><stop stop-color="#ffca44"/><stop offset="1" stop-color="#f8a528"/></linearGradient><linearGradient id="svg-5344aacc-be0b-4bc8-8a0f-e5ec89665040-f" x1="14.19" x2="14.19" y1="25.562" y2="30.663" gradientUnits="userSpaceOnUse"><stop stop-color="#d8796f" stop-opacity="0"/><stop offset="1" stop-color="#d8796f"/></linearGradient><linearGradient id="svg-1ec2433d-a3eb-4f79-9c8b-6d78791d63d0-h" x1="20.1" x2="20.1" y1="12.157" y2="25.445" gradientUnits="userSpaceOnUse"><stop stop-color="#d1730b"/><stop offset="1" stop-color="#e27d47"/></linearGradient><linearGradient id="svg-d6b89071-6de6-4bd7-aaef-2c993878be58-j" x1="28.867" x2="28.867" y1="10.73" y2="19.774" gradientUnits="userSpaceOnUse"><stop stop-color="#ffdb44"/><stop offset="1" stop-color="#f9a928"/></linearGradient><linearGradient id="svg-cb77bd6a-6508-4167-9d01-53b084c47234-m" x1="28.488" x2="28.488" y1="24.791" y2="32.876" gradientUnits="userSpaceOnUse"><stop stop-color="#ffdb44"/><stop offset="1" stop-color="#f9a928"/></linearGradient><linearGradient id="svg-e21b6551-0b49-4055-9714-6e29fa4d9d82-p" x1="31.904" x2="30.072" y1="28.446" y2="28.446" gradientUnits="userSpaceOnUse"><stop stop-color="#dc7c6a"/><stop offset="1" stop-color="#dc7c6a" stop-opacity="0"/></linearGradient><linearGradient id="svg-3eed7794-fd49-48e9-b240-c412852e05c8-s" x1="24.713" x2="18.924" y1="26.103" y2="26.103" gradientUnits="userSpaceOnUse"><stop stop-color="#fff166"/><stop offset="1" stop-color="#fff166" stop-opacity="0"/></linearGradient><linearGradient id="svg-0ce186eb-aea7-4a53-8b5b-a7d62f90b743-u" x1="29.937" x2="29.937" y1="20.625" y2="29.894" gradientUnits="userSpaceOnUse"><stop stop-color="#ffdb44"/><stop offset="1" stop-color="#f9a928"/></linearGradient><linearGradient id="svg-01d95e9d-7e59-4216-9d1f-59cef9928662-y" x1="25.607" x2="18.359" y1="22.233" y2="22.233" gradientUnits="userSpaceOnUse"><stop stop-color="#fff166"/><stop offset="1" stop-color="#fff166" stop-opacity="0"/></linearGradient><linearGradient id="svg-d5bee02e-c9c1-4a68-b9dc-b541f2c12851-A" x1="29.826" x2="29.826" y1="15.285" y2="25.398" gradientUnits="userSpaceOnUse"><stop stop-color="#ffdb44"/><stop offset="1" stop-color="#f9a928"/></linearGradient><linearGradient id="svg-07b10f14-99a4-4d6f-9ed7-060cc8ef5b08-G" x1="24.673" x2="18.059" y1="12.214" y2="12.214" gradientUnits="userSpaceOnUse"><stop stop-color="#fff166"/><stop offset="1" stop-color="#fff166" stop-opacity="0"/></linearGradient><linearGradient id="svg-464f222b-53f4-4d2d-8f09-b883d697145e-I" x1="25.584" x2="17.853" y1="16.69" y2="16.69" gradientUnits="userSpaceOnUse"><stop stop-color="#fff166"/><stop offset="1" stop-color="#fff166" stop-opacity="0"/></linearGradient><linearGradient id="svg-135c3f85-fccf-4947-8d55-331fd6b6fe80-K" x1="17.867" x2="14.778" y1="5.305" y2="5.305" gradientUnits="userSpaceOnUse"><stop stop-color="#fff166"/><stop offset="1" stop-color="#fff166" stop-opacity="0"/></linearGradient><filter id="svg-ab16bf2f-3517-4ba0-b45c-1775ff04587a-a" width="19.048" height="27.809" x="4.917" y="1.87" color-interpolation-filters="sRGB" filterUnits="userSpaceOnUse"><feFlood flood-opacity="0" result="BackgroundImageFix"/><feBlend in="SourceGraphic" in2="BackgroundImageFix" result="shape"/><feColorMatrix in="SourceAlpha" result="hardAlpha" values="0 0 0 0 0 0 0 0 0 0 0 0 0 0 0 0 0 0 127 0"/><feOffset dx=".5"/><feGaussianBlur stdDeviation="1"/><feComposite in2="hardAlpha" k2="-1" k3="1" operator="arithmetic"/><feColorMatrix values="0 0 0 0 0.847059 0 0 0 0 0.458824 0 0 0 0 0.360784 0 0 0 1 0"/><feBlend in2="shape" result="effect1_innerShadow_20020_2909"/></filter><filter id="svg-444501c0-225c-4385-adab-ba3bda96c733-g" width="12.909" height="20.615" x="13.646" y="10.157" color-interpolation-filters="sRGB" filterUnits="userSpaceOnUse"><feFlood flood-opacity="0" result="BackgroundImageFix"/><feBlend in="SourceGraphic" in2="BackgroundImageFix" result="shape"/><feGaussianBlur result="effect1_foregroundBlur_20020_2909" stdDeviation="1"/></filter><filter id="svg-1a1651fb-f035-49a3-8fe4-ac06013599ee-i" width="9.543" height="5.82" x="16.913" y="10.73" color-interpolation-filters="sRGB" filterUnits="userSpaceOnUse"><feFlood flood-opacity="0" result="BackgroundImageFix"/><feBlend in="SourceGraphic" in2="BackgroundImageFix" result="shape"/><feColorMatrix in="SourceAlpha" result="hardAlpha" values="0 0 0 0 0 0 0 0 0 0 0 0 0 0 0 0 0 0 127 0"/><feOffset dx=".5"/><feGaussianBlur stdDeviation=".75"/><feComposite in2="hardAlpha" k2="-1" k3="1" operator="arithmetic"/><feColorMatrix values="0 0 0 0 0.878431 0 0 0 0 0.541176 0 0 0 0 0.0627451 0 0 0 1 0"/><feBlend in2="shape" result="effect1_innerShadow_20020_2909"/></filter><filter id="svg-c5929e0c-7d63-4cff-88ed-d76d156aa053-l" width="9.361" height="6.164" x="16.796" y="23.515" color-interpolation-filters="sRGB" filterUnits="userSpaceOnUse"><feFlood flood-opacity="0" result="BackgroundImageFix"/><feBlend in="SourceGraphic" in2="BackgroundImageFix" result="shape"/><feColorMatrix in="SourceAlpha" result="hardAlpha" values="0 0 0 0 0 0 0 0 0 0 0 0 0 0 0 0 0 0 127 0"/><feOffset dx=".5" dy="-.5"/><feGaussianBlur stdDeviation=".75"/><feComposite in2="hardAlpha" k2="-1" k3="1" operator="arithmetic"/><feColorMatrix values="0 0 0 0 0.941176 0 0 0 0 0.643137 0 0 0 0 0.215686 0 0 0 1 0"/><feBlend in2="shape" result="effect1_innerShadow_20020_2909"/></filter><filter id="svg-876af660-3787-4025-8224-87cb4933a662-r" width="7.87" height="3.976" x="18.372" y="24.449" color-interpolation-filters="sRGB" filterUnits="userSpaceOnUse"><feFlood flood-opacity="0" result="BackgroundImageFix"/><feBlend in="SourceGraphic" in2="BackgroundImageFix" result="shape"/><feGaussianBlur result="effect1_foregroundBlur_20020_2909" stdDeviation=".625"/></filter><filter id="svg-d3b0c416-94f2-4c1b-92bb-e48c0a87bc0b-t" width="10.659" height="6.464" x="16.796" y="19.235" color-interpolation-filters="sRGB" filterUnits="userSpaceOnUse"><feFlood flood-opacity="0" result="BackgroundImageFix"/><feBlend in="SourceGraphic" in2="BackgroundImageFix" result="shape"/><feColorMatrix in="SourceAlpha" result="hardAlpha" values="0 0 0 0 0 0 0 0 0 0 0 0 0 0 0 0 0 0 127 0"/><feOffset dx=".5" dy="-.5"/><feGaussianBlur stdDeviation=".75"/><feComposite in2="hardAlpha" k2="-1" k3="1" operator="arithmetic"/><feColorMatrix values="0 0 0 0 0.941176 0 0 0 0 0.643137 0 0 0 0 0.215686 0 0 0 1 0"/><feBlend in2="shape" result="effect1_innerShadow_20020_2909"/></filter><filter id="svg-fd37288b-7294-4874-8ca8-25d34d478dab-x" width="9.225" height="3.976" x="17.982" y="20.579" color-interpolation-filters="sRGB" filterUnits="userSpaceOnUse"><feFlood flood-opacity="0" result="BackgroundImageFix"/><feBlend in="SourceGraphic" in2="BackgroundImageFix" result="shape"/><feGaussianBlur result="effect1_foregroundBlur_20020_2909" stdDeviation=".625"/></filter><filter id="svg-b7721d77-6095-43af-84c0-bb38f3cfc94c-z" width="10.614" height="6.333" x="16.796" y="14.785" color-interpolation-filters="sRGB" filterUnits="userSpaceOnUse"><feFlood flood-opacity="0" result="BackgroundImageFix"/><feBlend in="SourceGraphic" in2="BackgroundImageFix" result="shape"/><feColorMatrix in="SourceAlpha" result="hardAlpha" values="0 0 0 0 0 0 0 0 0 0 0 0 0 0 0 0 0 0 127 0"/><feOffset dx=".5" dy="-.5"/><feGaussianBlur stdDeviation=".75"/><feComposite in2="hardAlpha" k2="-1" k3="1" operator="arithmetic"/><feColorMatrix values="0 0 0 0 0.941176 0 0 0 0 0.643137 0 0 0 0 0.215686 0 0 0 1 0"/><feBlend in2="shape" result="effect1_innerShadow_20020_2909"/></filter><filter id="svg-8eca434a-9414-4d57-995c-e55ecfb6f9c3-F" width="8.636" height="5.016" x="17.606" y="10.274" color-interpolation-filters="sRGB" filterUnits="userSpaceOnUse"><feFlood flood-opacity="0" result="BackgroundImageFix"/><feBlend in="SourceGraphic" in2="BackgroundImageFix" result="shape"/><feGaussianBlur result="effect1_foregroundBlur_20020_2909" stdDeviation=".625"/></filter><filter id="svg-c856b1b1-7f44-4140-b428-1fa8a7a02499-H" width="9.672" height="5.016" x="17.535" y="14.75" color-interpolation-filters="sRGB" filterUnits="userSpaceOnUse"><feFlood flood-opacity="0" result="BackgroundImageFix"/><feBlend in="SourceGraphic" in2="BackgroundImageFix" result="shape"/><feGaussianBlur result="effect1_foregroundBlur_20020_2909" stdDeviation=".625"/></filter><filter id="svg-11f7ef28-6322-4e9d-90c9-515d6b5fdaa2-J" width="5.365" height="10.497" x="13.9" y="1.862" color-interpolation-filters="sRGB" filterUnits="userSpaceOnUse"><feFlood flood-opacity="0" result="BackgroundImageFix"/><feBlend in="SourceGraphic" in2="BackgroundImageFix" result="shape"/><feGaussianBlur result="effect1_foregroundBlur_20020_2909" stdDeviation=".625"/></filter></defs></svg>